<svg width="719" height="143" viewBox="0 0 719 143" fill="none" xmlns="http://www.w3.org/2000/svg">
<path d="M132.53 63.0968H92.5343V103.092H132.53V63.0968Z" fill="url(#paint0_linear)"/>
<path d="M16.3661 59.7266L100.06 0L158 81.1906L74.3063 140.917L16.3661 59.7266Z" fill="url(#paint1_linear)"/>
<path d="M0 73.6169L70.4384 12.6489L129.689 81.1037L59.2506 142.071L0 73.6169Z" fill="url(#paint2_linear)"/>
<path d="M41.3908 87.8291H41.3078V87.8743C41.3078 79.468 34.5359 72.6544 26.1301 72.6544C17.7247 72.6544 11.2039 79.4684 11.2039 87.8743C11.2039 96.2189 17.4189 102.994 26.5401 103.089V103.465H56.0755V103.089C47.8234 102.993 41.399 96.0816 41.3908 87.8291Z" fill="#AF2F73"/>
<path d="M201.309 106.41C199.717 107.257 198.194 107.9 196.738 108.34C195.283 108.78 193.895 109 192.574 109C190.78 109 189.544 108.509 188.867 107.527C188.224 106.512 187.902 104.582 187.902 101.738C187.902 100.283 188.055 95.6953 188.359 87.9766C188.664 80.224 188.816 73.1654 188.816 66.8008C188.816 58.6419 188.562 52.362 188.055 47.9609C187.581 43.526 186.802 40.3268 185.719 38.3633C187.445 37.4492 189.003 36.7721 190.391 36.332C191.812 35.8919 193.133 35.6719 194.352 35.6719C196.112 35.6719 197.348 36.1797 198.059 37.1953C198.77 38.2109 199.125 40.0221 199.125 42.6289C199.125 43.0352 198.939 47.25 198.566 55.2734C198.228 63.263 198.059 71.0833 198.059 78.7344C198.059 86.4531 198.312 92.4622 198.82 96.7617C199.328 101.061 200.158 104.277 201.309 106.41ZM252.953 93.9688C253.021 90.651 253.072 87.1133 253.105 83.3555C253.173 79.5638 253.207 77.431 253.207 76.957C253.207 74.3841 253.19 72.4714 253.156 71.2188C253.156 69.9661 253.122 68.7982 253.055 67.7148C250.651 66.6992 248.4 65.9544 246.301 65.4805C244.236 64.9727 242.272 64.7188 240.41 64.7188C234.486 64.7188 229.797 66.5807 226.344 70.3047C222.891 73.9948 221.164 79.0221 221.164 85.3867C221.164 90.668 222.586 94.849 225.43 97.9297C228.273 101.01 232.116 102.551 236.957 102.551C240.105 102.551 242.983 101.857 245.59 100.469C248.197 99.0469 250.651 96.8802 252.953 93.9688ZM253.512 60.6562V56.1875C253.512 51.0078 253.309 46.8776 252.902 43.7969C252.496 40.6823 251.87 38.2617 251.023 36.5352C252.378 35.7904 253.647 35.2487 254.832 34.9102C256.017 34.5378 257.066 34.3516 257.98 34.3516C259.605 34.3516 260.74 34.7747 261.383 35.6211C262.026 36.4674 262.348 38.0417 262.348 40.3438C262.348 41.7995 262.111 46.8099 261.637 55.375C261.197 63.9401 260.977 71.7943 260.977 78.9375C260.977 87.6042 261.214 93.901 261.688 97.8281C262.195 101.755 263.042 104.717 264.227 106.715C262.737 107.493 261.383 108.069 260.164 108.441C258.945 108.814 257.828 109 256.812 109C255.458 109 254.493 108.611 253.918 107.832C253.376 107.053 253.105 105.716 253.105 103.82C253.105 103.177 253.105 102.686 253.105 102.348C253.139 101.975 253.156 101.637 253.156 101.332C250.516 104.176 247.757 106.275 244.879 107.629C242.035 108.949 238.87 109.609 235.383 109.609C228.646 109.609 223.128 107.375 218.828 102.906C214.562 98.4375 212.43 92.6654 212.43 85.5898C212.43 77.6003 215.07 70.9987 220.352 65.7852C225.633 60.5378 232.319 57.9141 240.41 57.9141C242.374 57.9141 244.439 58.151 246.605 58.625C248.806 59.0651 251.108 59.7422 253.512 60.6562ZM281.594 78.3281C283.828 78.7005 286.283 78.9883 288.957 79.1914C291.665 79.3607 294.577 79.4453 297.691 79.4453C301.923 79.4453 304.75 79.056 306.172 78.2773C307.594 77.4987 308.305 76.0938 308.305 74.0625C308.305 70.9818 307.238 68.5443 305.105 66.75C302.973 64.9557 300.061 64.0586 296.371 64.0586C292.444 64.0586 289.177 65.3112 286.57 67.8164C283.964 70.3216 282.305 73.8255 281.594 78.3281ZM311.148 98.2852C311.893 99.1992 312.435 100.062 312.773 100.875C313.146 101.654 313.332 102.415 313.332 103.16C313.332 104.988 311.961 106.495 309.219 107.68C306.51 108.831 302.956 109.406 298.555 109.406C290.464 109.406 284.116 107.206 279.512 102.805C274.941 98.3698 272.656 92.2591 272.656 84.4727C272.656 76.6185 274.958 70.2031 279.562 65.2266C284.201 60.2161 290.142 57.7109 297.387 57.7109C302.973 57.7109 307.56 59.3021 311.148 62.4844C314.737 65.6667 316.531 69.7292 316.531 74.6719C316.531 78.5651 315.042 81.3411 312.062 83C309.083 84.6589 304.022 85.4883 296.879 85.4883C294.204 85.4883 291.53 85.4036 288.855 85.2344C286.215 85.0312 283.591 84.7435 280.984 84.3711V85.082C280.984 90.3633 282.542 94.5443 285.656 97.625C288.771 100.706 293.003 102.246 298.352 102.246C300.857 102.246 303.176 101.924 305.309 101.281C307.441 100.604 309.388 99.6055 311.148 98.2852ZM367.008 106.309C365.688 107.155 364.486 107.798 363.402 108.238C362.319 108.678 361.371 108.898 360.559 108.898C359.103 108.898 358.036 108.458 357.359 107.578C356.716 106.664 356.344 105.208 356.242 103.211C353.703 105.378 351.181 106.986 348.676 108.035C346.204 109.085 343.682 109.609 341.109 109.609C336.031 109.609 331.935 108.188 328.82 105.344C325.706 102.5 324.148 98.7591 324.148 94.1211C324.148 88.8737 326.281 84.6758 330.547 81.5273C334.846 78.3451 340.618 76.7539 347.863 76.7539C349.048 76.7539 350.301 76.8047 351.621 76.9062C352.975 76.974 354.414 77.0924 355.938 77.2617C356.005 76.957 356.039 76.6523 356.039 76.3477C356.073 76.0091 356.09 75.6198 356.09 75.1797C356.09 71.6589 355.091 68.9844 353.094 67.1562C351.13 65.2943 348.27 64.3633 344.512 64.3633C341.397 64.3633 338.824 64.888 336.793 65.9375C334.796 66.9531 333.171 68.5443 331.918 70.7109C330.699 70.4062 329.768 69.8815 329.125 69.1367C328.516 68.3919 328.211 67.4271 328.211 66.2422C328.211 63.7708 329.768 61.7396 332.883 60.1484C336.031 58.5234 340.128 57.7109 345.172 57.7109C351.367 57.7109 356.005 59.2174 359.086 62.2305C362.201 65.2096 363.758 69.6784 363.758 75.6367C363.758 76.7539 363.707 78.7005 363.605 81.4766C363.504 84.2526 363.453 86.487 363.453 88.1797C363.453 92.8516 363.724 96.6094 364.266 99.4531C364.841 102.297 365.755 104.582 367.008 106.309ZM355.836 83.7109C354.279 83.474 352.874 83.3047 351.621 83.2031C350.402 83.0677 349.353 83 348.473 83C343.225 83 339.264 83.8802 336.59 85.6406C333.915 87.3672 332.578 89.957 332.578 93.4102C332.578 96.1862 333.509 98.3698 335.371 99.9609C337.233 101.552 339.806 102.348 343.09 102.348C345.561 102.348 347.863 101.891 349.996 100.977C352.163 100.029 354.143 98.6237 355.938 96.7617C355.87 95.069 355.819 93.6979 355.785 92.6484C355.785 91.5651 355.785 90.5326 355.785 89.5508C355.785 88.9414 355.802 87.9935 355.836 86.707C355.87 85.3867 355.87 84.388 355.836 83.7109ZM378.941 100.875C380.16 101.518 381.328 101.992 382.445 102.297C383.562 102.602 384.646 102.754 385.695 102.754C388.133 102.754 390.096 102.178 391.586 101.027C393.076 99.8424 393.82 98.3021 393.82 96.4062C393.82 94.9167 393.414 93.5286 392.602 92.2422C391.789 90.9557 390.266 89.3984 388.031 87.5703C387.659 87.2995 387.151 86.8932 386.508 86.3516C380.786 81.612 377.926 77.4141 377.926 73.7578C377.926 72.2682 378.214 70.7786 378.789 69.2891C379.365 67.7995 380.211 66.3776 381.328 65.0234C383.461 62.4844 385.949 60.5547 388.793 59.2344C391.671 57.8802 394.768 57.2031 398.086 57.2031C399.711 57.2031 400.947 57.5247 401.793 58.168C402.639 58.7773 403.062 59.6745 403.062 60.8594C403.062 61.4349 402.91 62.1289 402.605 62.9414C402.301 63.7201 401.793 64.7188 401.082 65.9375C400.168 65.5651 399.305 65.2943 398.492 65.125C397.68 64.9219 396.884 64.8203 396.105 64.8203C393.296 64.8203 391.01 65.5143 389.25 66.9023C387.523 68.2565 386.66 70.0169 386.66 72.1836C386.66 74.5534 389.013 77.7526 393.719 81.7812C394.904 82.7969 395.801 83.5924 396.41 84.168C398.408 85.9284 399.88 87.6719 400.828 89.3984C401.776 91.0911 402.25 92.8346 402.25 94.6289C402.25 98.8607 400.371 102.517 396.613 105.598C392.889 108.645 388.353 110.168 383.004 110.168C381.142 110.168 379.703 109.796 378.688 109.051C377.706 108.306 377.215 107.257 377.215 105.902C377.215 105.259 377.35 104.548 377.621 103.77C377.892 102.991 378.332 102.026 378.941 100.875ZM457.348 68.9336C466.082 60.3346 472.684 53.3776 477.152 48.0625C481.655 42.7474 484.549 38.4818 485.836 35.2656C488.409 35.9427 490.322 36.7383 491.574 37.6523C492.827 38.5326 493.453 39.582 493.453 40.8008C493.453 42.7982 488.257 48.7057 477.863 58.5234C473.395 62.7214 469.857 66.0898 467.25 68.6289C468.604 70.0846 470.568 72.1497 473.141 74.8242C490.372 92.8346 500.698 101.941 504.117 102.145C503.542 104.65 502.695 106.579 501.578 107.934C500.495 109.254 499.276 109.914 497.922 109.914C496.635 109.914 495.247 109.44 493.758 108.492C492.302 107.51 490.322 105.699 487.816 103.059C487.41 102.618 483.822 98.6237 477.051 91.0742C470.28 83.4909 463.712 76.7031 457.348 70.7109V78.125C457.348 86.0469 457.551 92.1406 457.957 96.4062C458.363 100.638 459.023 103.837 459.938 106.004C458.346 107.02 456.908 107.781 455.621 108.289C454.368 108.763 453.184 109 452.066 109C450.374 109 449.138 108.357 448.359 107.07C447.615 105.75 447.242 103.651 447.242 100.773C447.242 99.1146 447.395 94.4596 447.699 86.8086C448.038 79.1576 448.207 72.3359 448.207 66.3438C448.207 58.0495 447.953 51.8542 447.445 47.7578C446.971 43.6276 446.176 40.4961 445.059 38.3633C446.684 37.5169 448.173 36.8737 449.527 36.4336C450.915 35.9935 452.202 35.7734 453.387 35.7734C455.181 35.7734 456.417 36.2643 457.094 37.2461C457.805 38.194 458.16 39.9544 458.16 42.5273C458.16 43.0352 458.109 44.3216 458.008 46.3867C457.602 54.3086 457.382 61.8242 457.348 68.9336ZM515.492 78.3281C517.727 78.7005 520.181 78.9883 522.855 79.1914C525.564 79.3607 528.475 79.4453 531.59 79.4453C535.822 79.4453 538.648 79.056 540.07 78.2773C541.492 77.4987 542.203 76.0938 542.203 74.0625C542.203 70.9818 541.137 68.5443 539.004 66.75C536.871 64.9557 533.96 64.0586 530.27 64.0586C526.342 64.0586 523.076 65.3112 520.469 67.8164C517.862 70.3216 516.203 73.8255 515.492 78.3281ZM545.047 98.2852C545.792 99.1992 546.333 100.062 546.672 100.875C547.044 101.654 547.23 102.415 547.23 103.16C547.23 104.988 545.859 106.495 543.117 107.68C540.409 108.831 536.854 109.406 532.453 109.406C524.362 109.406 518.014 107.206 513.41 102.805C508.84 98.3698 506.555 92.2591 506.555 84.4727C506.555 76.6185 508.857 70.2031 513.461 65.2266C518.099 60.2161 524.04 57.7109 531.285 57.7109C536.871 57.7109 541.458 59.3021 545.047 62.4844C548.635 65.6667 550.43 69.7292 550.43 74.6719C550.43 78.5651 548.94 81.3411 545.961 83C542.982 84.6589 537.921 85.4883 530.777 85.4883C528.103 85.4883 525.428 85.4036 522.754 85.2344C520.113 85.0312 517.49 84.7435 514.883 84.3711V85.082C514.883 90.3633 516.44 94.5443 519.555 97.625C522.669 100.706 526.901 102.246 532.25 102.246C534.755 102.246 537.074 101.924 539.207 101.281C541.34 100.604 543.286 99.6055 545.047 98.2852ZM570.438 70C570.37 73.724 570.268 77.7357 570.133 82.0352C570.031 86.3008 569.98 88.7044 569.98 89.2461C569.98 93.6471 570.184 97.2188 570.59 99.9609C570.996 102.703 571.639 104.988 572.52 106.816C571.098 107.561 569.794 108.12 568.609 108.492C567.424 108.831 566.257 109 565.105 109C563.548 109 562.482 108.56 561.906 107.68C561.331 106.799 561.043 104.954 561.043 102.145C561.043 101.535 561.212 98.4036 561.551 92.75C561.923 87.0625 562.109 81.6966 562.109 76.6523C562.109 71.8789 561.923 68.1888 561.551 65.582C561.178 62.9753 560.569 60.6393 559.723 58.5742C560.467 58.3372 561.212 58.151 561.957 58.0156C562.736 57.8802 563.48 57.8125 564.191 57.8125C565.986 57.8125 567.408 58.3203 568.457 59.3359C569.507 60.3177 570.099 61.7227 570.234 63.5508C572.773 61.7227 575.465 60.3177 578.309 59.3359C581.152 58.3203 583.962 57.8125 586.738 57.8125C590.124 57.8125 593.154 58.5573 595.828 60.0469C598.536 61.5026 600.602 63.5339 602.023 66.1406C603.005 67.9349 603.699 70.0339 604.105 72.4375C604.546 74.8073 604.766 78.4297 604.766 83.3047C604.766 83.8125 604.732 85.0143 604.664 86.9102C604.63 88.806 604.613 90.4479 604.613 91.8359C604.613 95.3229 604.833 98.319 605.273 100.824C605.747 103.329 606.441 105.293 607.355 106.715C605.764 107.493 604.376 108.069 603.191 108.441C602.04 108.814 600.991 109 600.043 109C598.452 109 597.335 108.594 596.691 107.781C596.082 106.935 595.777 105.361 595.777 103.059C595.777 101.671 595.879 98.6914 596.082 94.1211C596.319 89.5169 596.438 85.6068 596.438 82.3906C596.438 76.263 595.507 71.8281 593.645 69.0859C591.783 66.3099 588.786 64.9219 584.656 64.9219C582.557 64.9219 580.289 65.362 577.852 66.2422C575.414 67.0885 572.943 68.3411 570.438 70ZM625.332 124.488C627.059 123.1 628.633 121.391 630.055 119.359C631.51 117.362 632.915 114.874 634.27 111.895L635.945 108.391C628.667 91.3281 623.572 80.3255 620.66 75.3828C617.783 70.4401 615.26 67.7826 613.094 67.4102C613.771 64.6341 614.736 62.4505 615.988 60.8594C617.241 59.2682 618.595 58.4727 620.051 58.4727C621.1 58.4727 621.964 58.7266 622.641 59.2344C623.318 59.7083 623.978 60.6055 624.621 61.9258C624.79 62.2643 626.568 66.5469 629.953 74.7734C633.339 82.9661 636.893 90.9388 640.617 98.6914C645.289 88.8398 648.776 80.918 651.078 74.9258C653.414 68.9336 654.582 64.8034 654.582 62.5352C654.582 62.0951 654.531 61.6719 654.43 61.2656C654.362 60.8594 654.277 60.4701 654.176 60.0977C654.413 60.0299 654.785 59.9115 655.293 59.7422C657.764 58.8958 659.525 58.4727 660.574 58.4727C661.793 58.4727 662.758 58.8112 663.469 59.4883C664.18 60.1654 664.535 61.0625 664.535 62.1797C664.535 63.6354 662.132 69.3229 657.324 79.2422C652.551 89.1615 648.471 98.2513 645.086 106.512C644.07 108.983 642.767 112.284 641.176 116.414C637.587 125.758 634.727 130.43 632.594 130.43C631.477 130.43 630.292 129.905 629.039 128.855C627.786 127.84 626.551 126.384 625.332 124.488ZM713.742 106.309C712.422 107.155 711.22 107.798 710.137 108.238C709.053 108.678 708.105 108.898 707.293 108.898C705.837 108.898 704.771 108.458 704.094 107.578C703.451 106.664 703.078 105.208 702.977 103.211C700.438 105.378 697.915 106.986 695.41 108.035C692.939 109.085 690.417 109.609 687.844 109.609C682.766 109.609 678.669 108.188 675.555 105.344C672.44 102.5 670.883 98.7591 670.883 94.1211C670.883 88.8737 673.016 84.6758 677.281 81.5273C681.581 78.3451 687.353 76.7539 694.598 76.7539C695.783 76.7539 697.035 76.8047 698.355 76.9062C699.71 76.974 701.148 77.0924 702.672 77.2617C702.74 76.957 702.773 76.6523 702.773 76.3477C702.807 76.0091 702.824 75.6198 702.824 75.1797C702.824 71.6589 701.826 68.9844 699.828 67.1562C697.865 65.2943 695.004 64.3633 691.246 64.3633C688.132 64.3633 685.559 64.888 683.527 65.9375C681.53 66.9531 679.905 68.5443 678.652 70.7109C677.434 70.4062 676.503 69.8815 675.859 69.1367C675.25 68.3919 674.945 67.4271 674.945 66.2422C674.945 63.7708 676.503 61.7396 679.617 60.1484C682.766 58.5234 686.862 57.7109 691.906 57.7109C698.102 57.7109 702.74 59.2174 705.82 62.2305C708.935 65.2096 710.492 69.6784 710.492 75.6367C710.492 76.7539 710.441 78.7005 710.34 81.4766C710.238 84.2526 710.188 86.487 710.188 88.1797C710.188 92.8516 710.458 96.6094 711 99.4531C711.576 102.297 712.49 104.582 713.742 106.309ZM702.57 83.7109C701.013 83.474 699.608 83.3047 698.355 83.2031C697.137 83.0677 696.087 83 695.207 83C689.96 83 685.999 83.8802 683.324 85.6406C680.65 87.3672 679.312 89.957 679.312 93.4102C679.312 96.1862 680.243 98.3698 682.105 99.9609C683.967 101.552 686.54 102.348 689.824 102.348C692.296 102.348 694.598 101.891 696.73 100.977C698.897 100.029 700.878 98.6237 702.672 96.7617C702.604 95.069 702.553 93.6979 702.52 92.6484C702.52 91.5651 702.52 90.5326 702.52 89.5508C702.52 88.9414 702.536 87.9935 702.57 86.707C702.604 85.3867 702.604 84.388 702.57 83.7109Z" fill="#DCDEDD"/>
<defs>
<linearGradient id="paint0_linear" x1="92.568" y1="83.1213" x2="132.563" y2="83.1213" gradientUnits="userSpaceOnUse">
<stop stop-color="#472459"/>
<stop offset="1" stop-color="#7B3B96"/>
</linearGradient>
<linearGradient id="paint1_linear" x1="58.5272" y1="90.9073" x2="97.462" y2="63.1219" gradientUnits="userSpaceOnUse">
<stop stop-color="#582659"/>
<stop offset="1" stop-color="#8C378B"/>
</linearGradient>
<linearGradient id="paint2_linear" x1="36.5965" y1="101.823" x2="57.6162" y2="83.6293" gradientUnits="userSpaceOnUse">
<stop stop-color="#7A2B64"/>
<stop offset="1" stop-color="#A1317D"/>
</linearGradient>
</defs>
</svg>
